<svg xmlns="http://www.w3.org/2000/svg" xmlns:xlink="http://www.w3.org/1999/xlink" contentStyleType="text/css" data-diagram-type="ACTIVITY" height="670px" preserveAspectRatio="none" style="width:591px;height:670px;background:#FFFFFF;" version="1.1" viewBox="0 0 591 670" width="591px" zoomAndPan="magnify"><?plantuml 1.2026.6?><defs/><g><g class="title" data-source-line="1"><text fill="#000000" font-family="sans-serif" font-size="14" font-weight="700" lengthAdjust="spacing" textLength="210.1982" x="189.8501" y="32.9951">Member Transfer Lifecycle</text></g><ellipse cx="293.9492" cy="62.2969" fill="#222222" rx="10" ry="10" style="stroke:#222222;stroke-width:1;"/><rect fill="#F1F1F1" height="33.9688" rx="12.5" ry="12.5" style="stroke:#181818;stroke-width:0.5;" width="201.9395" x="192.9795" y="92.2969"/><text fill="#000000" font-family="sans-serif" font-size="12" lengthAdjust="spacing" textLength="181.9395" x="202.9795" y="113.4355">User records member transfer</text><rect fill="#F1F1F1" height="33.9688" rx="12.5" ry="12.5" style="stroke:#181818;stroke-width:0.5;" width="248.8086" x="169.5449" y="146.2656"/><text fill="#000000" font-family="sans-serif" font-size="12" lengthAdjust="spacing" textLength="228.8086" x="179.5449" y="167.4043">Validate both users belong to account</text><rect fill="#F1F1F1" height="33.9688" rx="12.5" ry="12.5" style="stroke:#181818;stroke-width:0.5;" width="156.582" x="215.6582" y="200.2344"/><text fill="#000000" font-family="sans-serif" font-size="12" lengthAdjust="spacing" textLength="136.582" x="225.6582" y="221.373">Create custody entries</text><rect fill="#555555" height="6" rx="2.5" ry="2.5" style="stroke:#555555;stroke-width:1;" width="522.1172" x="32.8906" y="254.2031"/><rect fill="#F1F1F1" height="33.9688" rx="12.5" ry="12.5" style="stroke:#181818;stroke-width:0.5;" width="238.2676" x="46.8906" y="280.2031"/><text fill="#000000" font-family="sans-serif" font-size="12" lengthAdjust="spacing" textLength="218.2676" x="56.8906" y="301.3418">from_user internal_transfer -amount</text><rect fill="#F1F1F1" height="33.9688" rx="12.5" ry="12.5" style="stroke:#181818;stroke-width:0.5;" width="227.8496" x="313.1582" y="280.2031"/><text fill="#000000" font-family="sans-serif" font-size="12" lengthAdjust="spacing" textLength="207.8496" x="323.1582" y="301.3418">to_user internal_transfer +amount</text><rect fill="#555555" height="6" rx="2.5" ry="2.5" style="stroke:#555555;stroke-width:1;" width="522.1172" x="32.8906" y="334.1719"/><rect fill="#F1F1F1" height="33.9688" rx="12.5" ry="12.5" style="stroke:#181818;stroke-width:0.5;" width="174.5059" x="206.6963" y="360.1719"/><text fill="#000000" font-family="sans-serif" font-size="12" lengthAdjust="spacing" textLength="154.5059" x="216.6963" y="381.3105">Create settlement entries</text><rect fill="#555555" height="6" rx="2.5" ry="2.5" style="stroke:#555555;stroke-width:1;" width="555.8984" x="16" y="414.1406"/><rect fill="#F1F1F1" height="33.9688" rx="12.5" ry="12.5" style="stroke:#181818;stroke-width:0.5;" width="262.8828" x="28" y="440.1406"/><text fill="#000000" font-family="sans-serif" font-size="12" lengthAdjust="spacing" textLength="242.8828" x="38" y="461.2793">from_user settlement_transfer +amount</text><rect fill="#F1F1F1" height="33.9688" rx="12.5" ry="12.5" style="stroke:#181818;stroke-width:0.5;" width="241.0156" x="318.8828" y="440.1406"/><text fill="#000000" font-family="sans-serif" font-size="12" lengthAdjust="spacing" textLength="221.0156" x="328.8828" y="461.2793">to_user settlement_transfer -amount</text><rect fill="#555555" height="6" rx="2.5" ry="2.5" style="stroke:#555555;stroke-width:1;" width="555.8984" x="16" y="494.1094"/><rect fill="#F1F1F1" height="33.9688" rx="12.5" ry="12.5" style="stroke:#181818;stroke-width:0.5;" width="180.1777" x="203.8604" y="520.1094"/><text fill="#000000" font-family="sans-serif" font-size="12" lengthAdjust="spacing" textLength="160.1777" x="213.8604" y="541.248">Rebuild member summary</text><rect fill="#F1F1F1" height="33.9688" rx="12.5" ry="12.5" style="stroke:#181818;stroke-width:0.5;" width="349.6191" x="119.1396" y="574.0781"/><text fill="#000000" font-family="sans-serif" font-size="12" lengthAdjust="spacing" textLength="329.6191" x="129.1396" y="595.2168">Return custody, settlements, pending reimbursements</text><ellipse cx="293.9492" cy="639.0469" fill="none" rx="11" ry="11" style="stroke:#222222;stroke-width:1;"/><ellipse cx="293.9492" cy="639.0469" fill="#222222" rx="6" ry="6" style="stroke:#222222;stroke-width:1;"/><line style="stroke:#181818;stroke-width:1;" x1="293.9492" x2="293.9492" y1="72.2969" y2="92.2969"/><polygon fill="#181818" points="289.9492,82.2969,293.9492,92.2969,297.9492,82.2969,293.9492,86.2969" style="stroke:#181818;stroke-width:1;stroke-linejoin:miter;stroke-miterlimit:10;"/><line style="stroke:#181818;stroke-width:1;" x1="293.9492" x2="293.9492" y1="126.2656" y2="146.2656"/><polygon fill="#181818" points="289.9492,136.2656,293.9492,146.2656,297.9492,136.2656,293.9492,140.2656" style="stroke:#181818;stroke-width:1;stroke-linejoin:miter;stroke-miterlimit:10;"/><line style="stroke:#181818;stroke-width:1;" x1="293.9492" x2="293.9492" y1="180.2344" y2="200.2344"/><polygon fill="#181818" points="289.9492,190.2344,293.9492,200.2344,297.9492,190.2344,293.9492,194.2344" style="stroke:#181818;stroke-width:1;stroke-linejoin:miter;stroke-miterlimit:10;"/><line style="stroke:#181818;stroke-width:1;" x1="166.0244" x2="166.0244" y1="260.2031" y2="280.2031"/><polygon fill="#181818" points="162.0244,270.2031,166.0244,280.2031,170.0244,270.2031,166.0244,274.2031" style="stroke:#181818;stroke-width:1;stroke-linejoin:miter;stroke-miterlimit:10;"/><line style="stroke:#181818;stroke-width:1;" x1="427.083" x2="427.083" y1="260.2031" y2="280.2031"/><polygon fill="#181818" points="423.083,270.2031,427.083,280.2031,431.083,270.2031,427.083,274.2031" style="stroke:#181818;stroke-width:1;stroke-linejoin:miter;stroke-miterlimit:10;"/><line style="stroke:#181818;stroke-width:1;" x1="166.0244" x2="166.0244" y1="314.1719" y2="334.1719"/><polygon fill="#181818" points="162.0244,324.1719,166.0244,334.1719,170.0244,324.1719,166.0244,328.1719" style="stroke:#181818;stroke-width:1;stroke-linejoin:miter;stroke-miterlimit:10;"/><line style="stroke:#181818;stroke-width:1;" x1="427.083" x2="427.083" y1="314.1719" y2="334.1719"/><polygon fill="#181818" points="423.083,324.1719,427.083,334.1719,431.083,324.1719,427.083,328.1719" style="stroke:#181818;stroke-width:1;stroke-linejoin:miter;stroke-miterlimit:10;"/><line style="stroke:#181818;stroke-width:1;" x1="293.9492" x2="293.9492" y1="234.2031" y2="254.2031"/><polygon fill="#181818" points="289.9492,244.2031,293.9492,254.2031,297.9492,244.2031,293.9492,248.2031" style="stroke:#181818;stroke-width:1;stroke-linejoin:miter;stroke-miterlimit:10;"/><line style="stroke:#181818;stroke-width:1;" x1="293.9492" x2="293.9492" y1="340.1719" y2="360.1719"/><polygon fill="#181818" points="289.9492,350.1719,293.9492,360.1719,297.9492,350.1719,293.9492,354.1719" style="stroke:#181818;stroke-width:1;stroke-linejoin:miter;stroke-miterlimit:10;"/><line style="stroke:#181818;stroke-width:1;" x1="159.4414" x2="159.4414" y1="420.1406" y2="440.1406"/><polygon fill="#181818" points="155.4414,430.1406,159.4414,440.1406,163.4414,430.1406,159.4414,434.1406" style="stroke:#181818;stroke-width:1;stroke-linejoin:miter;stroke-miterlimit:10;"/><line style="stroke:#181818;stroke-width:1;" x1="439.3906" x2="439.3906" y1="420.1406" y2="440.1406"/><polygon fill="#181818" points="435.3906,430.1406,439.3906,440.1406,443.3906,430.1406,439.3906,434.1406" style="stroke:#181818;stroke-width:1;stroke-linejoin:miter;stroke-miterlimit:10;"/><line style="stroke:#181818;stroke-width:1;" x1="159.4414" x2="159.4414" y1="474.1094" y2="494.1094"/><polygon fill="#181818" points="155.4414,484.1094,159.4414,494.1094,163.4414,484.1094,159.4414,488.1094" style="stroke:#181818;stroke-width:1;stroke-linejoin:miter;stroke-miterlimit:10;"/><line style="stroke:#181818;stroke-width:1;" x1="439.3906" x2="439.3906" y1="474.1094" y2="494.1094"/><polygon fill="#181818" points="435.3906,484.1094,439.3906,494.1094,443.3906,484.1094,439.3906,488.1094" style="stroke:#181818;stroke-width:1;stroke-linejoin:miter;stroke-miterlimit:10;"/><line style="stroke:#181818;stroke-width:1;" x1="293.9492" x2="293.9492" y1="394.1406" y2="414.1406"/><polygon fill="#181818" points="289.9492,404.1406,293.9492,414.1406,297.9492,404.1406,293.9492,408.1406" style="stroke:#181818;stroke-width:1;stroke-linejoin:miter;stroke-miterlimit:10;"/><line style="stroke:#181818;stroke-width:1;" x1="293.9492" x2="293.9492" y1="500.1094" y2="520.1094"/><polygon fill="#181818" points="289.9492,510.1094,293.9492,520.1094,297.9492,510.1094,293.9492,514.1094" style="stroke:#181818;stroke-width:1;stroke-linejoin:miter;stroke-miterlimit:10;"/><line style="stroke:#181818;stroke-width:1;" x1="293.9492" x2="293.9492" y1="554.0781" y2="574.0781"/><polygon fill="#181818" points="289.9492,564.0781,293.9492,574.0781,297.9492,564.0781,293.9492,568.0781" style="stroke:#181818;stroke-width:1;stroke-linejoin:miter;stroke-miterlimit:10;"/><line style="stroke:#181818;stroke-width:1;" x1="293.9492" x2="293.9492" y1="608.0469" y2="628.0469"/><polygon fill="#181818" points="289.9492,618.0469,293.9492,628.0469,297.9492,618.0469,293.9492,622.0469" style="stroke:#181818;stroke-width:1;stroke-linejoin:miter;stroke-miterlimit:10;"/><?plantuml-src VP6nKiGm34HxVuLwxduWAMcXOO3sHhQLmuDjtKXoaR_79WGe0fr7VhjQhorP9dYauadWMR3gqWyFQQ6mXapEgQ6OcrwqZuK2IrGe6svV-EocLymfeX5ujZTe7LRmbBbUmHWm16xLEdSlDAZGr3YkGDKaaSxEBIpl3c1QXCjbw25L8wcOB_iQE6FPR0OCUCLKXyJuBy7TBg0QuNF3Tm8bwmylFS2_8Nwm0zVZ64UIyq6G9_8jvRYNgQqKb7KU5zQaxXsTVXdg2MxT8VLMXLBnJNIRp_sR-EO-0000?></g></svg>