<svg xmlns="http://www.w3.org/2000/svg" xmlns:xlink="http://www.w3.org/1999/xlink" contentStyleType="text/css" data-diagram-type="ACTIVITY" height="887px" preserveAspectRatio="none" style="width:1249px;height:887px;background:#FFFFFF;" version="1.1" viewBox="0 0 1249 887" width="1249px" zoomAndPan="magnify"><?plantuml 1.2026.6?><defs/><g><g class="title" data-source-line="1"><text fill="#000000" font-family="sans-serif" font-size="14" font-weight="700" lengthAdjust="spacing" textLength="228.0127" x="509.5005" y="32.9951">Shared Transaction Lifecycle</text></g><ellipse cx="546.6974" cy="62.2969" fill="#222222" rx="10" ry="10" style="stroke:#222222;stroke-width:1;"/><rect fill="#F1F1F1" height="33.9688" rx="12.5" ry="12.5" style="stroke:#181818;stroke-width:0.5;" width="171.125" x="461.1349" y="92.2969"/><text fill="#000000" font-family="sans-serif" font-size="12" lengthAdjust="spacing" textLength="151.125" x="471.1349" y="113.4355">Receive transaction form</text><polygon fill="#F1F1F1" points="503.4574,146.2656,589.9374,146.2656,601.9374,158.2656,589.9374,170.2656,503.4574,170.2656,491.4574,158.2656,503.4574,146.2656" style="stroke:#181818;stroke-width:0.5;stroke-linejoin:miter;stroke-miterlimit:10;"/><text fill="#000000" font-family="sans-serif" font-size="11" lengthAdjust="spacing" textLength="86.48" x="503.4574" y="162.0737">type is income?</text><text fill="#000000" font-family="sans-serif" font-size="11" lengthAdjust="spacing" textLength="19.0083" x="472.4491" y="155.6714">yes</text><text fill="#000000" font-family="sans-serif" font-size="11" lengthAdjust="spacing" textLength="48.2754" x="601.9374" y="155.6714">outcome</text><polygon fill="#F1F1F1" points="175.0288,180.2656,288.8101,180.2656,300.8101,192.2656,288.8101,204.2656,175.0288,204.2656,163.0288,192.2656,175.0288,180.2656" style="stroke:#181818;stroke-width:0.5;stroke-linejoin:miter;stroke-miterlimit:10;"/><text fill="#000000" font-family="sans-serif" font-size="11" lengthAdjust="spacing" textLength="113.7813" x="175.0288" y="196.0737">status is completed?</text><text fill="#000000" font-family="sans-serif" font-size="11" lengthAdjust="spacing" textLength="19.0083" x="144.0205" y="189.6714">yes</text><text fill="#000000" font-family="sans-serif" font-size="11" lengthAdjust="spacing" textLength="13.7017" x="300.8101" y="189.6714">no</text><rect fill="#F1F1F1" height="33.9688" rx="12.5" ry="12.5" style="stroke:#181818;stroke-width:0.5;" width="194.9668" x="37.8906" y="214.2656"/><text fill="#000000" font-family="sans-serif" font-size="12" lengthAdjust="spacing" textLength="174.9668" x="47.8906" y="235.4043">Save one income transaction</text><rect fill="#F1F1F1" height="33.9688" rx="12.5" ry="12.5" style="stroke:#181818;stroke-width:0.5;" width="151.0566" x="59.8457" y="283.2344"/><text fill="#000000" font-family="sans-serif" font-size="12" lengthAdjust="spacing" textLength="131.0566" x="69.8457" y="304.373">Set custodian_user_id</text><rect fill="#F1F1F1" height="33.9688" rx="12.5" ry="12.5" style="stroke:#181818;stroke-width:0.5;" width="238.748" x="16" y="352.2031"/><text fill="#000000" font-family="sans-serif" font-size="12" lengthAdjust="spacing" textLength="218.748" x="26" y="373.3418">Create income_custody ledger entry</text><rect fill="#F1F1F1" height="33.9688" rx="12.5" ry="12.5" style="stroke:#181818;stroke-width:0.5;" width="173.7266" x="48.5107" y="421.1719"/><text fill="#000000" font-family="sans-serif" font-size="12" lengthAdjust="spacing" textLength="153.7266" x="58.5107" y="442.3105">Increase account balance</text><rect fill="#F1F1F1" height="33.9688" rx="12.5" ry="12.5" style="stroke:#181818;stroke-width:0.5;" width="107.4336" x="274.748" y="214.2656"/><text fill="#000000" font-family="sans-serif" font-size="12" lengthAdjust="spacing" textLength="87.4336" x="284.748" y="235.4043">Reject request</text><polygon fill="#F1F1F1" points="231.9194,461.1406,243.9194,473.1406,231.9194,485.1406,219.9194,473.1406,231.9194,461.1406" style="stroke:#181818;stroke-width:0.5;stroke-linejoin:miter;stroke-miterlimit:10;"/><rect fill="#F1F1F1" height="33.9688" rx="12.5" ry="12.5" style="stroke:#181818;stroke-width:0.5;" width="203.6797" x="799.6355" y="180.2656"/><text fill="#000000" font-family="sans-serif" font-size="12" lengthAdjust="spacing" textLength="183.6797" x="809.6355" y="201.4043">Save one outcome transaction</text><rect fill="#F1F1F1" height="33.9688" rx="12.5" ry="12.5" style="stroke:#181818;stroke-width:0.5;" width="139.2852" x="831.8328" y="249.2344"/><text fill="#000000" font-family="sans-serif" font-size="12" lengthAdjust="spacing" textLength="119.2852" x="841.8328" y="270.373">Set paid_by_user_id</text><rect fill="#F1F1F1" height="33.9688" rx="12.5" ry="12.5" style="stroke:#181818;stroke-width:0.5;" width="191.0762" x="805.9373" y="318.2031"/><text fill="#000000" font-family="sans-serif" font-size="12" lengthAdjust="spacing" textLength="171.0762" x="815.9373" y="339.3418">Sync transaction_allocations</text><polygon fill="#F1F1F1" points="844.5847,387.1719,958.366,387.1719,970.366,399.1719,958.366,411.1719,844.5847,411.1719,832.5847,399.1719,844.5847,387.1719" style="stroke:#181818;stroke-width:0.5;stroke-linejoin:miter;stroke-miterlimit:10;"/><text fill="#000000" font-family="sans-serif" font-size="11" lengthAdjust="spacing" textLength="113.7813" x="844.5847" y="402.98">status is completed?</text><text fill="#000000" font-family="sans-serif" font-size="11" lengthAdjust="spacing" textLength="19.0083" x="813.5764" y="396.5776">yes</text><text fill="#000000" font-family="sans-serif" font-size="11" lengthAdjust="spacing" textLength="44.7144" x="970.366" y="396.5776">pending</text><polygon fill="#F1F1F1" points="590.1201,421.1719,777.1309,421.1719,789.1309,433.1719,777.1309,445.1719,590.1201,445.1719,578.1201,433.1719,590.1201,421.1719" style="stroke:#181818;stroke-width:0.5;stroke-linejoin:miter;stroke-miterlimit:10;"/><text fill="#000000" font-family="sans-serif" font-size="11" lengthAdjust="spacing" textLength="187.0107" x="590.1201" y="436.98">payment_source is account_fund?</text><text fill="#000000" font-family="sans-serif" font-size="11" lengthAdjust="spacing" textLength="19.0083" x="559.1118" y="430.5776">yes</text><text fill="#000000" font-family="sans-serif" font-size="11" lengthAdjust="spacing" textLength="128.7988" x="789.1309" y="430.5776">member_out_of_pocket</text><rect fill="#F1F1F1" height="33.9688" rx="12.5" ry="12.5" style="stroke:#181818;stroke-width:0.5;" width="279.1602" x="392.1816" y="455.1719"/><text fill="#000000" font-family="sans-serif" font-size="12" lengthAdjust="spacing" textLength="259.1602" x="402.1816" y="476.3105">Create account_fund_expense ledger entry</text><rect fill="#F1F1F1" height="33.9688" rx="12.5" ry="12.5" style="stroke:#181818;stroke-width:0.5;" width="179.2051" x="442.1592" y="524.1406"/><text fill="#000000" font-family="sans-serif" font-size="12" lengthAdjust="spacing" textLength="159.2051" x="452.1592" y="545.2793">Decrease account balance</text><rect fill="#F1F1F1" height="33.9688" rx="12.5" ry="12.5" style="stroke:#181818;stroke-width:0.5;" width="266.7441" x="398.3896" y="593.1094"/><text fill="#000000" font-family="sans-serif" font-size="12" lengthAdjust="spacing" textLength="246.7441" x="408.3896" y="614.248">No reimbursement suggestion by default</text><rect fill="#F1F1F1" height="33.9688" rx="12.5" ry="12.5" style="stroke:#181818;stroke-width:0.5;" width="240.6582" x="715.1602" y="455.1719"/><text fill="#000000" font-family="sans-serif" font-size="12" lengthAdjust="spacing" textLength="220.6582" x="725.1602" y="476.3105">Create expense_paid entry for payer</text><rect fill="#F1F1F1" height="33.9688" rx="12.5" ry="12.5" style="stroke:#181818;stroke-width:0.5;" width="288.2949" x="691.3418" y="524.1406"/><text fill="#000000" font-family="sans-serif" font-size="12" lengthAdjust="spacing" textLength="268.2949" x="701.3418" y="545.2793">Create expense_share entries for allocations</text><rect fill="#F1F1F1" height="33.9688" rx="12.5" ry="12.5" style="stroke:#181818;stroke-width:0.5;" width="179.2051" x="745.8867" y="593.1094"/><text fill="#000000" font-family="sans-serif" font-size="12" lengthAdjust="spacing" textLength="159.2051" x="755.8867" y="614.248">Decrease account balance</text><rect fill="#F1F1F1" height="33.9688" rx="12.5" ry="12.5" style="stroke:#181818;stroke-width:0.5;" width="222.2305" x="724.374" y="647.0781"/><text fill="#000000" font-family="sans-serif" font-size="12" lengthAdjust="spacing" textLength="202.2305" x="734.374" y="668.2168">Build reimbursement suggestions</text><polygon fill="#F1F1F1" points="683.6255,687.0469,695.6255,699.0469,683.6255,711.0469,671.6255,699.0469,683.6255,687.0469" style="stroke:#181818;stroke-width:0.5;stroke-linejoin:miter;stroke-miterlimit:10;"/><rect fill="#F1F1F1" height="33.9688" rx="12.5" ry="12.5" style="stroke:#181818;stroke-width:0.5;" width="174.4473" x="1032.1016" y="421.1719"/><text fill="#000000" font-family="sans-serif" font-size="12" lengthAdjust="spacing" textLength="154.4473" x="1042.1016" y="442.3105">Keep transaction pending</text><rect fill="#F1F1F1" height="33.9688" rx="12.5" ry="12.5" style="stroke:#181818;stroke-width:0.5;" width="219.377" x="1009.6367" y="490.1406"/><text fill="#000000" font-family="sans-serif" font-size="12" lengthAdjust="spacing" textLength="199.377" x="1019.6367" y="511.2793">Do not create final ledger entries</text><rect fill="#F1F1F1" height="33.9688" rx="12.5" ry="12.5" style="stroke:#181818;stroke-width:0.5;" width="149.4102" x="1044.6201" y="559.1094"/><text fill="#000000" font-family="sans-serif" font-size="12" lengthAdjust="spacing" textLength="129.4102" x="1054.6201" y="580.248">Do not affect balance</text><polygon fill="#F1F1F1" points="901.4753,717.0469,913.4753,729.0469,901.4753,741.0469,889.4753,729.0469,901.4753,717.0469" style="stroke:#181818;stroke-width:0.5;stroke-linejoin:miter;stroke-miterlimit:10;"/><polygon fill="#F1F1F1" points="546.6974,747.0469,558.6974,759.0469,546.6974,771.0469,534.6974,759.0469,546.6974,747.0469" style="stroke:#181818;stroke-width:0.5;stroke-linejoin:miter;stroke-miterlimit:10;"/><rect fill="#F1F1F1" height="33.9688" rx="12.5" ry="12.5" style="stroke:#181818;stroke-width:0.5;" width="248.0117" x="422.6915" y="791.0469"/><text fill="#000000" font-family="sans-serif" font-size="12" lengthAdjust="spacing" textLength="228.0117" x="432.6915" y="812.1855">Return transaction with account meta</text><ellipse cx="546.6974" cy="856.0156" fill="none" rx="11" ry="11" style="stroke:#222222;stroke-width:1;"/><ellipse cx="546.6974" cy="856.0156" fill="#222222" rx="6" ry="6" style="stroke:#222222;stroke-width:1;"/><line style="stroke:#181818;stroke-width:1;" x1="546.6974" x2="546.6974" y1="72.2969" y2="92.2969"/><polygon fill="#181818" points="542.6974,82.2969,546.6974,92.2969,550.6974,82.2969,546.6974,86.2969" style="stroke:#181818;stroke-width:1;stroke-linejoin:miter;stroke-miterlimit:10;"/><line style="stroke:#181818;stroke-width:1;" x1="135.374" x2="135.374" y1="248.2344" y2="283.2344"/><polygon fill="#181818" points="131.374,273.2344,135.374,283.2344,139.374,273.2344,135.374,277.2344" style="stroke:#181818;stroke-width:1;stroke-linejoin:miter;stroke-miterlimit:10;"/><line style="stroke:#181818;stroke-width:1;" x1="135.374" x2="135.374" y1="317.2031" y2="352.2031"/><polygon fill="#181818" points="131.374,342.2031,135.374,352.2031,139.374,342.2031,135.374,346.2031" style="stroke:#181818;stroke-width:1;stroke-linejoin:miter;stroke-miterlimit:10;"/><line style="stroke:#181818;stroke-width:1;" x1="135.374" x2="135.374" y1="386.1719" y2="421.1719"/><polygon fill="#181818" points="131.374,411.1719,135.374,421.1719,139.374,411.1719,135.374,415.1719" style="stroke:#181818;stroke-width:1;stroke-linejoin:miter;stroke-miterlimit:10;"/><line style="stroke:#181818;stroke-width:1;" x1="163.0288" x2="135.374" y1="192.2656" y2="192.2656"/><line style="stroke:#181818;stroke-width:1;" x1="135.374" x2="135.374" y1="192.2656" y2="214.2656"/><polygon fill="#181818" points="131.374,204.2656,135.374,214.2656,139.374,204.2656,135.374,208.2656" style="stroke:#181818;stroke-width:1;stroke-linejoin:miter;stroke-miterlimit:10;"/><line style="stroke:#181818;stroke-width:1;" x1="300.8101" x2="328.4648" y1="192.2656" y2="192.2656"/><line style="stroke:#181818;stroke-width:1;" x1="328.4648" x2="328.4648" y1="192.2656" y2="214.2656"/><polygon fill="#181818" points="324.4648,204.2656,328.4648,214.2656,332.4648,204.2656,328.4648,208.2656" style="stroke:#181818;stroke-width:1;stroke-linejoin:miter;stroke-miterlimit:10;"/><line style="stroke:#181818;stroke-width:1;" x1="135.374" x2="135.374" y1="455.1406" y2="473.1406"/><line style="stroke:#181818;stroke-width:1;" x1="135.374" x2="219.9194" y1="473.1406" y2="473.1406"/><polygon fill="#181818" points="209.9194,469.1406,219.9194,473.1406,209.9194,477.1406,213.9194,473.1406" style="stroke:#181818;stroke-width:1;stroke-linejoin:miter;stroke-miterlimit:10;"/><line style="stroke:#181818;stroke-width:1;" x1="328.4648" x2="328.4648" y1="248.2344" y2="473.1406"/><line style="stroke:#181818;stroke-width:1;" x1="328.4648" x2="243.9194" y1="473.1406" y2="473.1406"/><polygon fill="#181818" points="253.9194,469.1406,243.9194,473.1406,253.9194,477.1406,249.9194,473.1406" style="stroke:#181818;stroke-width:1;stroke-linejoin:miter;stroke-miterlimit:10;"/><line style="stroke:#181818;stroke-width:1;" x1="901.4753" x2="901.4753" y1="214.2344" y2="249.2344"/><polygon fill="#181818" points="897.4753,239.2344,901.4753,249.2344,905.4753,239.2344,901.4753,243.2344" style="stroke:#181818;stroke-width:1;stroke-linejoin:miter;stroke-miterlimit:10;"/><line style="stroke:#181818;stroke-width:1;" x1="901.4753" x2="901.4753" y1="283.2031" y2="318.2031"/><polygon fill="#181818" points="897.4753,308.2031,901.4753,318.2031,905.4753,308.2031,901.4753,312.2031" style="stroke:#181818;stroke-width:1;stroke-linejoin:miter;stroke-miterlimit:10;"/><line style="stroke:#181818;stroke-width:1;" x1="531.7617" x2="531.7617" y1="489.1406" y2="524.1406"/><polygon fill="#181818" points="527.7617,514.1406,531.7617,524.1406,535.7617,514.1406,531.7617,518.1406" style="stroke:#181818;stroke-width:1;stroke-linejoin:miter;stroke-miterlimit:10;"/><line style="stroke:#181818;stroke-width:1;" x1="531.7617" x2="531.7617" y1="558.1094" y2="593.1094"/><polygon fill="#181818" points="527.7617,583.1094,531.7617,593.1094,535.7617,583.1094,531.7617,587.1094" style="stroke:#181818;stroke-width:1;stroke-linejoin:miter;stroke-miterlimit:10;"/><line style="stroke:#181818;stroke-width:1;" x1="835.4893" x2="835.4893" y1="489.1406" y2="524.1406"/><polygon fill="#181818" points="831.4893,514.1406,835.4893,524.1406,839.4893,514.1406,835.4893,518.1406" style="stroke:#181818;stroke-width:1;stroke-linejoin:miter;stroke-miterlimit:10;"/><line style="stroke:#181818;stroke-width:1;" x1="835.4893" x2="835.4893" y1="558.1094" y2="593.1094"/><polygon fill="#181818" points="831.4893,583.1094,835.4893,593.1094,839.4893,583.1094,835.4893,587.1094" style="stroke:#181818;stroke-width:1;stroke-linejoin:miter;stroke-miterlimit:10;"/><line style="stroke:#181818;stroke-width:1;" x1="835.4893" x2="835.4893" y1="627.0781" y2="647.0781"/><polygon fill="#181818" points="831.4893,637.0781,835.4893,647.0781,839.4893,637.0781,835.4893,641.0781" style="stroke:#181818;stroke-width:1;stroke-linejoin:miter;stroke-miterlimit:10;"/><line style="stroke:#181818;stroke-width:1;" x1="578.1201" x2="531.7617" y1="433.1719" y2="433.1719"/><line style="stroke:#181818;stroke-width:1;" x1="531.7617" x2="531.7617" y1="433.1719" y2="455.1719"/><polygon fill="#181818" points="527.7617,445.1719,531.7617,455.1719,535.7617,445.1719,531.7617,449.1719" style="stroke:#181818;stroke-width:1;stroke-linejoin:miter;stroke-miterlimit:10;"/><line style="stroke:#181818;stroke-width:1;" x1="789.1309" x2="835.4893" y1="433.1719" y2="433.1719"/><line style="stroke:#181818;stroke-width:1;" x1="835.4893" x2="835.4893" y1="433.1719" y2="455.1719"/><polygon fill="#181818" points="831.4893,445.1719,835.4893,455.1719,839.4893,445.1719,835.4893,449.1719" style="stroke:#181818;stroke-width:1;stroke-linejoin:miter;stroke-miterlimit:10;"/><line style="stroke:#181818;stroke-width:1;" x1="531.7617" x2="531.7617" y1="627.0781" y2="699.0469"/><line style="stroke:#181818;stroke-width:1;" x1="531.7617" x2="671.6255" y1="699.0469" y2="699.0469"/><polygon fill="#181818" points="661.6255,695.0469,671.6255,699.0469,661.6255,703.0469,665.6255,699.0469" style="stroke:#181818;stroke-width:1;stroke-linejoin:miter;stroke-miterlimit:10;"/><line style="stroke:#181818;stroke-width:1;" x1="835.4893" x2="835.4893" y1="681.0469" y2="699.0469"/><line style="stroke:#181818;stroke-width:1;" x1="835.4893" x2="695.6255" y1="699.0469" y2="699.0469"/><polygon fill="#181818" points="705.6255,695.0469,695.6255,699.0469,705.6255,703.0469,701.6255,699.0469" style="stroke:#181818;stroke-width:1;stroke-linejoin:miter;stroke-miterlimit:10;"/><line style="stroke:#181818;stroke-width:1;" x1="1119.3252" x2="1119.3252" y1="455.1406" y2="490.1406"/><polygon fill="#181818" points="1115.3252,480.1406,1119.3252,490.1406,1123.3252,480.1406,1119.3252,484.1406" style="stroke:#181818;stroke-width:1;stroke-linejoin:miter;stroke-miterlimit:10;"/><line style="stroke:#181818;stroke-width:1;" x1="1119.3252" x2="1119.3252" y1="524.1094" y2="559.1094"/><polygon fill="#181818" points="1115.3252,549.1094,1119.3252,559.1094,1123.3252,549.1094,1119.3252,553.1094" style="stroke:#181818;stroke-width:1;stroke-linejoin:miter;stroke-miterlimit:10;"/><line style="stroke:#181818;stroke-width:1;" x1="832.5847" x2="683.6255" y1="399.1719" y2="399.1719"/><line style="stroke:#181818;stroke-width:1;" x1="683.6255" x2="683.6255" y1="399.1719" y2="421.1719"/><polygon fill="#181818" points="679.6255,411.1719,683.6255,421.1719,687.6255,411.1719,683.6255,415.1719" style="stroke:#181818;stroke-width:1;stroke-linejoin:miter;stroke-miterlimit:10;"/><line style="stroke:#181818;stroke-width:1;" x1="970.366" x2="1119.3252" y1="399.1719" y2="399.1719"/><line style="stroke:#181818;stroke-width:1;" x1="1119.3252" x2="1119.3252" y1="399.1719" y2="421.1719"/><polygon fill="#181818" points="1115.3252,411.1719,1119.3252,421.1719,1123.3252,411.1719,1119.3252,415.1719" style="stroke:#181818;stroke-width:1;stroke-linejoin:miter;stroke-miterlimit:10;"/><line style="stroke:#181818;stroke-width:1;" x1="683.6255" x2="683.6255" y1="711.0469" y2="729.0469"/><line style="stroke:#181818;stroke-width:1;" x1="683.6255" x2="889.4753" y1="729.0469" y2="729.0469"/><polygon fill="#181818" points="879.4753,725.0469,889.4753,729.0469,879.4753,733.0469,883.4753,729.0469" style="stroke:#181818;stroke-width:1;stroke-linejoin:miter;stroke-miterlimit:10;"/><line style="stroke:#181818;stroke-width:1;" x1="1119.3252" x2="1119.3252" y1="593.0781" y2="729.0469"/><line style="stroke:#181818;stroke-width:1;" x1="1119.3252" x2="913.4753" y1="729.0469" y2="729.0469"/><polygon fill="#181818" points="923.4753,725.0469,913.4753,729.0469,923.4753,733.0469,919.4753,729.0469" style="stroke:#181818;stroke-width:1;stroke-linejoin:miter;stroke-miterlimit:10;"/><line style="stroke:#181818;stroke-width:1;" x1="901.4753" x2="901.4753" y1="352.1719" y2="387.1719"/><polygon fill="#181818" points="897.4753,377.1719,901.4753,387.1719,905.4753,377.1719,901.4753,381.1719" style="stroke:#181818;stroke-width:1;stroke-linejoin:miter;stroke-miterlimit:10;"/><line style="stroke:#181818;stroke-width:1;" x1="491.4574" x2="231.9194" y1="158.2656" y2="158.2656"/><line style="stroke:#181818;stroke-width:1;" x1="231.9194" x2="231.9194" y1="158.2656" y2="180.2656"/><polygon fill="#181818" points="227.9194,170.2656,231.9194,180.2656,235.9194,170.2656,231.9194,174.2656" style="stroke:#181818;stroke-width:1;stroke-linejoin:miter;stroke-miterlimit:10;"/><line style="stroke:#181818;stroke-width:1;" x1="601.9374" x2="901.4753" y1="158.2656" y2="158.2656"/><line style="stroke:#181818;stroke-width:1;" x1="901.4753" x2="901.4753" y1="158.2656" y2="180.2656"/><polygon fill="#181818" points="897.4753,170.2656,901.4753,180.2656,905.4753,170.2656,901.4753,174.2656" style="stroke:#181818;stroke-width:1;stroke-linejoin:miter;stroke-miterlimit:10;"/><line style="stroke:#181818;stroke-width:1;" x1="231.9194" x2="231.9194" y1="485.1406" y2="759.0469"/><line style="stroke:#181818;stroke-width:1;" x1="231.9194" x2="534.6974" y1="759.0469" y2="759.0469"/><polygon fill="#181818" points="524.6974,755.0469,534.6974,759.0469,524.6974,763.0469,528.6974,759.0469" style="stroke:#181818;stroke-width:1;stroke-linejoin:miter;stroke-miterlimit:10;"/><line style="stroke:#181818;stroke-width:1;" x1="901.4753" x2="901.4753" y1="741.0469" y2="759.0469"/><line style="stroke:#181818;stroke-width:1;" x1="901.4753" x2="558.6974" y1="759.0469" y2="759.0469"/><polygon fill="#181818" points="568.6974,755.0469,558.6974,759.0469,568.6974,763.0469,564.6974,759.0469" style="stroke:#181818;stroke-width:1;stroke-linejoin:miter;stroke-miterlimit:10;"/><line style="stroke:#181818;stroke-width:1;" x1="546.6974" x2="546.6974" y1="126.2656" y2="146.2656"/><polygon fill="#181818" points="542.6974,136.2656,546.6974,146.2656,550.6974,136.2656,546.6974,140.2656" style="stroke:#181818;stroke-width:1;stroke-linejoin:miter;stroke-miterlimit:10;"/><line style="stroke:#181818;stroke-width:1;" x1="546.6974" x2="546.6974" y1="771.0469" y2="791.0469"/><polygon fill="#181818" points="542.6974,781.0469,546.6974,791.0469,550.6974,781.0469,546.6974,785.0469" style="stroke:#181818;stroke-width:1;stroke-linejoin:miter;stroke-miterlimit:10;"/><line style="stroke:#181818;stroke-width:1;" x1="546.6974" x2="546.6974" y1="825.0156" y2="845.0156"/><polygon fill="#181818" points="542.6974,835.0156,546.6974,845.0156,550.6974,835.0156,546.6974,839.0156" style="stroke:#181818;stroke-width:1;stroke-linejoin:miter;stroke-miterlimit:10;"/><?plantuml-src bPF1ajCm44Jl_eevPdyXEL05Uw6WE6ougnIvbGZaaP56k-ZlaMmjwmHI1HUNBJtDzBHRuiI3ZXSTCTBNg3bf8oumVNOMfXYFOKYYempx9nYuPv1iA1lYT1W6PsadPGQvH8vDcF3kWUG2fbr1UXY86b7hI4wDgSJi8HXlCQBzKTSUWT4BRTiTEW4XavE4qMbMEI4gD_Qz3n5QNi-gbIhaCPuH2IonTF0Zcueca3OcP1OwQQ_Pe6t3r_KTXwxe2TzWX29-P2HP01wT7LOiP6cz6lkclI_UYb-apzgDwbIsmlV7mcOBA-rzCBgzfkhlV_ZNm5cNgSwgKiZHB3-b3wbivh-SUVDjoodydC5rn3_TgmSUST-_1VWIgcDkEkMOqDHGokTpzQ_5vbHeXDNPouglJawOJjMIwfqALit1V8VS2koQL3DnLTGoM3qjY8SxR6hfNc27jE1NxlxhGE-py-FTcNgXDHcl4ytjayyzHv-0-UhszEsUoCT076goL_7MiVPRwwlsQr1RssAvpUqQo-NPxglao5SDNvnSViytGVIXNkum3xy0?></g></svg>